<svg width="800" height="400" viewBox="0 0 800 400" xmlns="http://www.w3.org/2000/svg">
  <!-- Background elements -->
  <rect width="800" height="400" fill="#0f172a" />
  
  <!-- Forest elements -->
  <g id="trees">
    <!-- Left side trees -->
    <path d="M50,350 L70,200 L90,350 Z" fill="#1e293b" />
    <path d="M60,200 L80,100 L100,200 Z" fill="#1e293b" />
    <path d="M70,100 L90,50 L110,100 Z" fill="#1e293b" />
    
    <path d="M150,350 L170,220 L190,350 Z" fill="#1e293b" />
    <path d="M160,220 L180,120 L200,220 Z" fill="#1e293b" />
    
    <!-- Right side trees -->
    <path d="M650,350 L670,200 L690,350 Z" fill="#1e293b" />
    <path d="M660,200 L680,100 L700,200 Z" fill="#1e293b" />
    <path d="M670,100 L690,50 L710,100 Z" fill="#1e293b" />
    
    <path d="M550,350 L570,220 L590,350 Z" fill="#1e293b" />
    <path d="M560,220 L580,120 L600,220 Z" fill="#1e293b" />
  </g>
  
  <!-- Path through the forest -->
  <path d="M100,380 C200,350 300,380 400,300 C500,220 600,280 700,250" 
        stroke="#64748b" stroke-width="20" fill="none" stroke-linecap="round" />
  
  <!-- Stepping stones along the path -->
  <circle cx="150" cy="360" r="15" fill="#334155" />
  <circle cx="250" cy="350" r="15" fill="#334155" />
  <circle cx="350" cy="320" r="15" fill="#334155" />
  <circle cx="450" cy="270" r="15" fill="#334155" />
  <circle cx="550" cy="260" r="15" fill="#334155" />
  <circle cx="650" cy="250" r="15" fill="#334155" />
  
  <!-- Glowing elements to represent progress -->
  <circle cx="150" cy="360" r="8" fill="#3b82f6" opacity="0.7">
    <animate attributeName="opacity" values="0.4;0.8;0.4" dur="3s" repeatCount="indefinite" />
  </circle>
  <circle cx="250" cy="350" r="8" fill="#3b82f6" opacity="0.7">
    <animate attributeName="opacity" values="0.4;0.8;0.4" dur="3s" repeatCount="indefinite" begin="0.5s" />
  </circle>
  <circle cx="350" cy="320" r="8" fill="#3b82f6" opacity="0.7">
    <animate attributeName="opacity" values="0.4;0.8;0.4" dur="3s" repeatCount="indefinite" begin="1s" />
  </circle>
  <circle cx="450" cy="270" r="8" fill="#8b5cf6" opacity="0.7">
    <animate attributeName="opacity" values="0.4;0.8;0.4" dur="3s" repeatCount="indefinite" begin="1.5s" />
  </circle>
  <circle cx="550" cy="260" r="8" fill="#8b5cf6" opacity="0.7">
    <animate attributeName="opacity" values="0.4;0.8;0.4" dur="3s" repeatCount="indefinite" begin="2s" />
  </circle>
  <circle cx="650" cy="250" r="8" fill="#8b5cf6" opacity="0.7">
    <animate attributeName="opacity" values="0.4;0.8;0.4" dur="3s" repeatCount="indefinite" begin="2.5s" />
  </circle>
  
  <!-- River flowing alongside the path -->
  <path d="M50,300 C150,320 250,280 350,260 C450,240 550,220 750,240" 
        stroke="#1e40af" stroke-width="15" fill="none" opacity="0.3" />
  
  <!-- Stars in the sky -->
  <g id="stars">
    <circle cx="100" cy="50" r="1" fill="white" opacity="0.7" />
    <circle cx="200" cy="70" r="1" fill="white" opacity="0.5" />
    <circle cx="300" cy="40" r="1" fill="white" opacity="0.6" />
    <circle cx="400" cy="60" r="1" fill="white" opacity="0.8" />
    <circle cx="500" cy="30" r="1" fill="white" opacity="0.7" />
    <circle cx="600" cy="50" r="1" fill="white" opacity="0.5" />
    <circle cx="700" cy="70" r="1" fill="white" opacity="0.6" />
    <circle cx="150" cy="90" r="1" fill="white" opacity="0.8" />
    <circle cx="250" cy="30" r="1" fill="white" opacity="0.7" />
    <circle cx="350" cy="80" r="1" fill="white" opacity="0.5" />
    <circle cx="450" cy="20" r="1" fill="white" opacity="0.6" />
    <circle cx="550" cy="90" r="1" fill="white" opacity="0.8" />
    <circle cx="650" cy="40" r="1" fill="white" opacity="0.7" />
  </g>
</svg>